<?xml version="1.0" encoding="UTF-8"?>
<svg id="Layer_2" data-name="Layer 2" xmlns="http://www.w3.org/2000/svg" viewBox="0 0 388.85 455.35">
  <defs>
    <style>
      .cls-1 {
        fill: #e4e3e3;
      }

      .cls-1, .cls-2, .cls-3, .cls-4, .cls-5, .cls-6, .cls-7, .cls-8, .cls-9, .cls-10, .cls-11 {
        stroke-width: 0px;
      }

      .cls-2 {
        fill: #d5d4d3;
      }

      .cls-4 {
        fill: none;
      }

      .cls-5 {
        fill: #dfdfdf;
      }

      .cls-6 {
        fill: #fff;
      }

      .cls-7 {
        fill: #cecccd;
      }

      .cls-8 {
        fill: #cccbcb;
      }

      .cls-9 {
        fill: #d8d7d7;
      }

      .cls-10 {
        fill: #ecebeb;
      }

      .cls-11 {
        fill: #242424;
      }
    </style>
  </defs>
  <g id="Layer_1-2" data-name="Layer 1">
    <g>
      <path class="cls-10" d="m145.1,174.72c-1.64,3.23-.92,6.24,2.2,8.06,3.71,2.16,7.48,4.2,11.26,6.24-.59,1.64-.85,3.69-.87,6.19-.06,8.72-.08,17.45-.1,26.18-11.2-6.5-16.88-10.15-30.17-17.72-3.66-2.08-3.22-2.34-7.74-5.06-1.99-1.55-3.35-3.94-4.14-6.72,1.9,1.03,3.81,2.06,5.71,3.09,2.41,1.3,4.75,3.11,7.33,3.57,1.96.35,4.81-.5,6.2-1.88,1.25-1.25,1.06-3.96,1.43-5.64-1.31-1.19-1.87-1.92-2.6-2.34-6.06-3.42-12.09-6.88-18.21-10.16.46-2.09,1.13-4.07,2-5.8,4-8,13-20,33-10,10.97,6.23,22.39,13.41,33.76,20.49-4.06.01-8.12.03-12.18.06-6.47-3.65-12.93-7.35-19.5-10.81-2.94-1.54-6.08-.34-7.38,2.25Z"/>
      <path class="cls-6" d="m189.4,206.73c-.54,26.48.2,35.02-1.49,37.7-.53.83-1.28,1.1-2.36,1.17-.02,0-.04.01-.07,0-.34.05-.7.05-1.08.02-3.68-.07-4.85-2.02-5.32-4.44-.03-.16-.06-.33-.09-.49-.03-.18-.06-.35-.08-.53-.02-.19-.05-.38-.07-.58-.02-.21-.04-.41-.06-.62-.1-1.09-.16-2.2-.35-3.22t-.03-30.01c0-7,11-8,11,1Z"/>
      <path class="cls-10" d="m267.57,199.28c-4.52,2.72-4.03,3.06-7.74,5.06-1.29.69-3.23,1.61-5.42,2.64-2.64-1.53-5.31-3.08-7.94-4.61,5.06-2.81,10.12-5.64,15.09-8.61,2.85-1.7,3.45-5,1.93-7.47-1.9-3.08-4.85-4.04-8.03-2.32-4.49,2.42-8.89,5.01-13.31,7.58-2.34,1.36-5.08,2.4-6.81,4.33-1.63-.96-3.18-1.88-4.64-2.73h0c-.45-6.74-3.98-9.88-11.14-9.91-1.84-.01-3.69-.01-5.53-.02l-8.45-4.71-.26-.14c-.31-.15-.59-.3-.86-.43-.03-.01-.05-.03-.08-.04,11.8-6.61,28.18-15.62,30.47-16.5,20-10,31,4,35,12,3.92,7.83,4,21-2.28,25.88Z"/>
      <path class="cls-5" d="m176.17,89.01c30.59,1.04,28.87-22.16,33.66-41.95,10.75,9.52,5.57,20.96,9.77,29.62,5.08,10.47,17.91,7.6,25.1,15.04-7.74,6.44-21.09,2.68-24.74,14.86-2.78,9.26-.59,19.88-7.72,29.26-8.5-9.04-5.41-20.34-8.56-29.74-3.88-11.6-17.41-7.69-27.5-17.1Z"/>
      <path class="cls-9" d="m34.62,148.03c4.23,1.15,7,3.71,6.38,8.31-.6,4.45-3.72,7.11-8.16,6.34-3.59-.63-6.17-3.49-5.89-7.45.32-4.43,2.98-6.99,7.67-7.19Z"/>
      <path class="cls-1" d="m93.17,54.39c-3.01-1.05-5.75-2.55-5.57-7.52.17-4.63,2.26-7.15,5.71-7.08,3.08.06,4.8,2.79,5.09,6.62.37,4.81-2.11,6.84-5.22,7.98Z"/>
      <path class="cls-2" d="m364.73,155.85c4.25.53,7.1,2.77,7.11,7.38,0,3.92-2.28,6.61-6.14,6.97-4.4.42-7.36-1.73-7.85-6.44-.51-4.96,2.77-6.73,6.87-7.92Z"/>
      <path class="cls-7" d="m234.97,0c2.94.1,4.94,1.54,5.21,4.47.3,3.24-2.08,4.46-4.78,4.72-2.96.29-4.85-1.21-5.01-4.31-.17-3.14,1.64-4.59,4.59-4.89Z"/>
      <path class="cls-8" d="m377.76,128.99c2.86.57,4.93,1.89,4.37,5.21-.41,2.43-2.07,3.8-4.52,3.78-2.98-.02-5.18-1.49-5.2-4.6-.01-3.27,2.49-4.23,5.35-4.4Z"/>
      <path class="cls-11" d="m178.4,205.73q.01,30.01.03,30.01c.19,1.02.25,2.13.35,3.22.02.21.04.41.06.62.02.2.05.39.07.58.02.18.05.35.08.53.03.16.06.33.09.49.47,2.42,1.64,4.37,5.32,4.44.39,0,.75,0,1.08-.02.03.01.05,0,.07,0,1.08-.07,1.83-.34,2.36-1.17,1.69-2.68.95-11.22,1.49-37.7,0-9-11-8-11-1Zm0,0q.01,30.01.03,30.01c.19,1.02.25,2.13.35,3.22.02.21.04.41.06.62.02.2.05.39.07.58.02.18.05.35.08.53.03.16.06.33.09.49.47,2.42,1.64,4.37,5.32,4.44.39,0,.75,0,1.08-.02.03.01.05,0,.07,0,1.08-.07,1.83-.34,2.36-1.17,1.69-2.68.95-11.22,1.49-37.7,0-9-11-8-11-1Z"/>
      <path class="cls-11" d="m387.87,313.79c-1.65-8.29-5.41-14.29-13.23-18.15-9.27-4.57-18.14-9.95-27.16-15.02-1.44-.81-2.78-1.81-4.51-2.96,10.64-6.15,20.67-12.2,30.97-17.78,4.69-2.54,6.71-6.1,6.61-11.13-.13-6.36.09-12.78-.71-19.06-1.65-13.03-7.14-23.8-19.72-29.76-3.15-1.49-6.28-3.05-9.32-4.76-6.5-3.63-12.45-3.01-19,.64-15.99,8.94-32.31,17.28-48.54,25.79-.58.3-1.33.62-2.05.79-2.77-1.57-7.92-4.52-14.13-8.09-.14.08-.29.16-.43.23-.06-.04-.13-.08-.19-.12l.41-.23c.07.04.14.08.21.12,6.42-3.37,12.91-7.01,14.77-8.85,1.2-6.18,2.15-13.18,1.96-20.06-.49-18.4-13.32-36.22-30.17-41.44-1.69-.53-3.3-.83-4.89-.9-.8-.03-1.59,0-2.38.09-2.22.26-4.48.89-6.63,2.34-2.84,1.91-35.03,19.53-46.46,26.08-15.29-8.87-30.57-17.73-45.77-26.75-2.23-1.32-4.41-2.08-6.63-2.34-.79-.09-1.58-.12-2.38-.09-1.59.07-3.2.37-4.89.9-16.85,5.22-29.68,23.04-30.17,41.44-.18,6.88.76,13.88,1.96,20.06,1.24,1.22,7.43,5.11,15.41,9.92-3.33,2.1-6.53,3.93-9.41,6.16-2.38,1.84-4.2,1.62-6.67.29-16.9-9.09-33.9-18-50.81-27.07-4.18-2.25-8.25-2.5-12.46-.4-5.12,2.57-10.24,5.13-15.32,7.79-7.5,3.93-12.04,10.36-14.69,18.17-3.5,10.36-3.49,21.14-2.8,31.85.16,2.39,2.4,5.16,4.44,6.8,3.17,2.56,7,4.29,10.54,6.38,7.38,4.35,14.75,8.72,22.92,13.54-11.51,6.3-21.78,12.51-32.57,17.62-7.81,3.7-11.28,9.71-12.85,17.52-.29,1.46-.36,2.97-.59,4.45-3.04,19.66,7,39.54,24.4,49.13,5.89,3.25,11.21,3.26,16.89-.18,5.31-3.21,10.82-6.09,16.25-9.13.14.31.26.43.24.53-.32,1.31-.66,2.62-.98,3.94-4.51,18.31-.51,34.43,12.91,47.8,11.92,11.88,21.77,12.96,36.14,4.51,11.72-6.9,23.37-13.9,35.09-20.8,5.1-3,10.3-5.87,16.09-9.15.2,2.66.47,4.49.47,6.31.03,12.74-.04,25.48.03,38.21.04,7.7,4.99,13.5,11.33,17.76,17.31,11.62,33.77,11.03,50,1,7.32-4.52,11.66-10.75,11.73-19.42.07-9.61.08-19.22.1-28.84.02-4.95.01-9.89.01-15.46,1.57.82,2.55,1.28,3.47,1.82,18.22,10.6,36.47,21.13,54.6,31.88,4.56,2.7,8.93,3.07,13.9,1.53,16.85-5.22,30.17-23.03,30.17-41.44,0-6.72-1.27-13.43-1.96-20.06,4.54,2.66,9.67,5.29,14.37,8.53,6.58,4.52,12.67,3.63,19.19-.12,17.76-10.23,27.04-31.62,22.89-52.36Zm-48.32-107.19c1.33-.7,3.71-.72,4.98.02,4.61,2.67,9.26,5.43,13.34,8.84,7.64,6.38,9.1,15.45,9.13,24.75,0,1.2-2.16,2.72-3.62,3.56-20.74,11.94-41.52,23.79-62.3,35.66-6.7,3.82-13.4,7.63-20.1,11.45-.18-.19-.35-.37-.53-.56.18-.42.34-.86.55-1.27,1.15-2.24,1.32-4.79-.91-5.98-1.64-.87-4.46-1.05-6.05-.22-6.49,3.43-12.92,7.08-18.99,11.2-5.38,3.66-10.22,4.74-15.5.11-1.36-1.2-3.18-1.88-5.38-3.12,2.17-1.19,3.99-1.94,5.52-3.08,1.86-1.37,4.23-2.79,4.98-4.73.64-1.64-.26-4.35-1.33-6.05-1.32-2.1-3.77-2.29-5.99-.97-3.85,2.29-7.74,4.55-11.42,7.09-1.58,1.09-2.63,1.19-4.26.2-4.04-2.43-8.23-4.62-12.93-7.23,1.79-1.14,3.12-2.14,4.57-2.91,42.06-22.3,84.12-44.59,126.24-66.76Zm-108.77,23.23c0-6.37,0-12.74,0-19.11,6.82,3.87,14.49,8.23,21.14,12,.9.52,1.77,1.02,2.63,1.5.52.3,1.03.59,1.53.87.04.03.09.05.13.07,2.55,1.39,5.18,2.89,8.13,4.52-.03.02-.06.03-.09.05-10.66,5.49-20.71,10.66-31.15,16.04-.48.24-.96.49-1.44.74l-.88-16.68Zm4.07-68.43c20-10,31,4,35,12,3.92,7.83,4,21-2.28,25.88-4.52,2.72-4.03,3.06-7.74,5.06-1.29.69-3.23,1.61-5.42,2.64-2.64-1.53-5.31-3.08-7.94-4.61,5.06-2.81,10.12-5.64,15.09-8.61,2.85-1.7,3.45-5,1.93-7.47-1.9-3.08-4.85-4.04-8.03-2.32-4.49,2.42-8.89,5.01-13.31,7.58-2.34,1.36-5.08,2.4-6.81,4.33-1.63-.96-3.18-1.88-4.64-2.73h0c-.45-6.74-3.98-9.88-11.14-9.91-1.84-.01-3.69-.01-5.53-.02l-8.45-4.71-.26-.14c-.31-.15-.59-.3-.86-.43-.03-.01-.05-.03-.08-.04,11.8-6.61,28.18-15.62,30.47-16.5Zm-18.25,40.7c.42,9.96,1.39,33.7,1.59,37.38.01.1.01.21.02.32.27,3.96.46,7.93.47,11.9.01.87-.66,2.04-1.39,2.56-1.47,1.05-3.2,1.75-5.17,2.78v-21.31c-.72-8-12.72-8-12.47,0,.75,9-.25,19,.75,28-.11.07-.22.15-.33.22.1.26.21.52.33.78-2.1,1.35-2.95,1.08-5.6,2.59-.56.32-1.7.03-2.38-.33-3.71-2.04-7.43-4.07-11.12-6.15-2.82-1.58-5.62-3.19-8.4-4.84-1.01-.6-1.79-2.32-1.88-3.58-.02-.36-.04-.72-.06-1.08-.15-3.24-.02-6.51,0-9.76v-.18c0-3.1-.59-11.66-1.04-17.83v-.02c-.23-8.1-.43-16-.43-19.84-.09-15.6,43.74-16.92,47.11-1.61Zm-96.92-3.49c-1.99-1.55-3.35-3.94-4.14-6.72,1.9,1.03,3.81,2.06,5.71,3.09,2.41,1.3,4.75,3.11,7.33,3.57,1.96.35,4.81-.5,6.2-1.88,1.25-1.25,1.06-3.96,1.43-5.64-1.31-1.19-1.87-1.92-2.6-2.34-6.06-3.42-12.09-6.88-18.21-10.16.46-2.09,1.13-4.07,2-5.8,4-8,13-20,33-10,10.97,6.23,22.39,13.41,33.76,20.49-4.06.01-8.12.03-12.18.06-6.47-3.65-12.93-7.35-19.5-10.81-2.94-1.54-6.08-.34-7.38,2.25-1.64,3.23-.92,6.24,2.2,8.06,3.71,2.16,7.48,4.2,11.26,6.24-.59,1.64-.85,3.69-.87,6.19-.06,8.72-.08,17.45-.1,26.18-11.2-6.5-16.88-10.15-30.17-17.72-3.66-2.08-3.22-2.34-7.74-5.06Zm38.34,40.83c0,2.36-.02,4.79-.02,7.36-11.45-6.04-22.14-11.67-33.39-17.6,3.9-2.2,7.24-4.16,10.62-5.94,4.9,2.87,9.8,5.73,14.19,8.27,3.21,1.86,6.14,3.55,8.59,4.96.01.97.01,1.95.01,2.95Zm-114.89,107.59c.25-18.64-6.47-32.51-24.06-40.39,3.02-1.66,5.68-3.18,8.38-4.62,9.57-5.08,19.18-10.09,28.71-15.23,1.84-1,3.22-1.06,5.07.07,5.94,3.63,12.01,7.02,18.68,10.88-4.76,2.64-9.02,5.01-13.29,7.36-4.25,2.34-8.53,4.64-12.77,6.99-3.93,2.18-5.26,5.39-3.61,8.56,1.79,3.45,5,4.04,9.32,1.66,7.96-4.39,15.86-8.91,23.93-13.09,1.44-.74,3.85-.69,5.37-.01,3.79,1.71,7.32,3.99,11.39,6.29-19.29,10.65-37.98,20.96-57.12,31.53Zm57.48,46.57c-3.84-18.45-12.83-31.73-33.36-34.88,3.34-2.13,6.13-4.07,9.08-5.76,17.19-9.85,34.44-19.6,51.59-29.52,2.6-1.5,4.7-1.59,7.26-.14,5.84,3.31,11.8,6.42,18.22,9.9-2.72,1.62-5.01,3.04-7.36,4.37-13.33,7.56-26.7,15.05-39.98,22.69-1.74,1-3.91,2.49-4.36,4.16-.48,1.8.3,4.46,1.48,6.05,1.69,2.29,4.41,1.92,6.8.61,9.93-5.47,19.85-10.96,29.78-16.44,8.08-4.45,16.19-8.84,24.22-13.37,1.87-1.06,3.26-1.17,5.06.17,3.08,2.27,6.36,4.26,10.1,6.72-26.52,15.35-52.43,30.34-78.53,45.44Zm117.72,7.21c-15.99-11.36-31.27-10.87-47.29.46,0-8.2-.04-15.76.07-23.32.01-.79.8-1.84,1.52-2.3,2.18-1.38,4.51-2.54,7.17-3.99.2,2.04.3,3.71.52,5.37.47,3.58,3.09,6.09,6.04,5.88,3.13-.23,4.83-2.42,4.85-6.36.02-2.5.14-5.01-.13-7.48-.3-2.65.63-4.59,3.06-5.19,1.52-.37,3.56-.09,4.94.66,5.68,3.1,11.24,6.44,16.75,9.83,1.03.64,2.36,1.89,2.39,2.89.19,7.66.11,15.34.11,23.55Zm81.16-30.12c-5.71,6.49-8.51,14.2-9.62,22.85-47.94-27.2-95.57-54.22-143.33-81.31,4.97-6.11,4.39-9.16-1.78-12.75-9.59-5.57-19.18-11.14-28.8-16.67-2.39-1.37-4.8-3.92-7.75-1.49-2.76,2.27-2.62,5.33-.65,9.03-1.82-.87-2.93-1.31-3.95-1.89-26.06-14.95-52.08-29.97-78.22-44.77-3.23-1.83-4.08-3.86-3.32-7.19.83-3.58,1.45-7.2,2.28-11.41,8.48,4.63,16.24,8.81,23.95,13.08,5.89,3.26,11.72,6.64,17.58,9.94,4.54,2.56,8.16,1.99,10.04-1.54,1.79-3.36.24-6.9-4.31-9.41-12.33-6.8-24.69-13.54-37.04-20.31-1.27-.69-2.54-1.39-4.66-2.55,5.54-3.16,10.29-6.05,15.23-8.55,1-.51,2.89.15,4.11.79,24.11,12.56,48.5,24.61,72.18,37.92,63.16,35.5,126.01,71.54,188.97,107.39,3.66,2.08,7.22,4.34,11.74,7.06-9.64,1.29-16.86,5.21-22.65,11.78Zm69.54-63.79c-.38.17-.75.35-1.12.54-.24.11-.47.22-.7.34-.24.12-.48.24-.71.37-.18.09-.37.19-.55.3-.35.18-.69.38-1.03.58-.3.17-.6.35-.89.53-.93.57-1.82,1.17-2.67,1.79-1.5,1.08-2.88,2.24-4.15,3.48-.7.68-1.38,1.4-2.01,2.13-.25.28-.48.57-.7.85-.16.18-.3.36-.43.54-.25.31-.49.62-.72.94-.26.36-.52.73-.77,1.11-.18.27-.36.55-.53.83-.07.1-.13.2-.19.3-.16.26-.31.52-.46.78-.02.02-.03.03-.03.05-.15.25-.29.5-.43.76-.67,1.24-1.27,2.52-1.8,3.84-.13.3-.24.6-.35.9-.21.55-.41,1.11-.59,1.68-.15.45-.28.89-.41,1.35-.11.38-.22.77-.32,1.16-.03.09-.05.18-.07.28-.12.46-.23.93-.33,1.4-.02.08-.04.16-.06.25-.09.43-.18.87-.26,1.31-.08.43-.15.86-.22,1.3-.28,1.69-.47,3.42-.58,5.2-.07.99-.12,1.98-.14,3-.02.8-.03,1.62-.02,2.44-19.54-10.57-38.73-20.96-58.66-31.75,4.91-2.72,9.14-5.21,13.52-7.39.82-.41,2.38.13,3.36.66,7.98,4.35,15.91,8.8,23.86,13.21.98.55,1.94,1.15,2.98,1.56,3.47,1.35,6.57.35,8.07-2.52,1.4-2.68.51-5.65-2.58-7.68-2.49-1.63-5.17-2.98-7.78-4.44-6.38-3.56-12.77-7.11-19.83-11.05,7.36-4.15,14.04-7.96,20.78-11.67.6-.33,1.73-.22,2.37.13,12.28,6.62,24.52,13.3,36.76,19.99.02.01.05.03.07.05s.03.04.05.06c.08.09.13.21.19.33.03.06.06.12.09.17h-.01Z"/>
      <path class="cls-10" d="m310.4,351.85c-62.96-35.85-125.81-71.89-188.97-107.39-23.68-13.31-48.07-25.36-72.18-37.92-1.22-.64-3.11-1.3-4.11-.79-4.94,2.5-9.69,5.39-15.23,8.55,2.12,1.16,3.39,1.86,4.66,2.55,12.35,6.77,24.71,13.51,37.04,20.31,4.55,2.51,6.1,6.05,4.31,9.41-1.88,3.53-5.5,4.1-10.04,1.54-5.86-3.3-11.69-6.68-17.58-9.94-7.71-4.27-15.47-8.45-23.95-13.08-.83,4.21-1.45,7.83-2.28,11.41-.76,3.33.09,5.36,3.32,7.19,26.14,14.8,52.16,29.82,78.22,44.77,1.02.58,2.13,1.02,3.95,1.89-1.97-3.7-2.11-6.76.65-9.03,2.95-2.43,5.36.12,7.75,1.49,9.62,5.53,19.21,11.1,28.8,16.67,6.17,3.59,6.75,6.64,1.78,12.75,47.76,27.09,95.39,54.11,143.33,81.31,1.11-8.65,3.91-16.36,9.62-22.85,5.79-6.57,13.01-10.49,22.65-11.78-4.52-2.72-8.08-4.98-11.74-7.06Zm-21.76,17.04c-2.1,3.31-5.56,3.83-9.88,1.39-7.72-4.35-15.4-8.74-23.11-13.11-21.8-12.36-43.64-24.64-65.36-37.16-2.12-1.23-4.25-3.62-4.92-5.9-.96-3.29,2.51-6.57,6.61-6.57,1.27.6,3.13,1.33,4.84,2.31,26.97,15.36,53.91,30.75,80.87,46.14,2.38,1.36,4.8,2.66,7.12,4.12,4.43,2.78,5.71,5.81,3.83,8.78Z"/>
      <path class="cls-10" d="m357.87,215.46c-4.08-3.41-8.73-6.17-13.34-8.84-1.27-.74-3.65-.72-4.98-.02-42.12,22.17-84.18,44.46-126.24,66.76-1.45.77-2.78,1.77-4.57,2.91,4.7,2.61,8.89,4.8,12.93,7.23,1.63.99,2.68.89,4.26-.2,3.68-2.54,7.57-4.8,11.42-7.09,2.22-1.32,4.67-1.13,5.99.97,1.07,1.7,1.97,4.41,1.33,6.05-.75,1.94-3.12,3.36-4.98,4.73-1.53,1.14-3.35,1.89-5.52,3.08,2.2,1.24,4.02,1.92,5.38,3.12,5.28,4.63,10.12,3.55,15.5-.11,6.07-4.12,12.5-7.77,18.99-11.2,1.59-.83,4.41-.65,6.05.22,2.23,1.19,2.06,3.74.91,5.98-.21.41-.37.85-.55,1.27.18.19.35.37.53.56,6.7-3.82,13.4-7.63,20.1-11.45,20.78-11.87,41.56-23.72,62.3-35.66,1.46-.84,3.62-2.36,3.62-3.56-.03-9.3-1.49-18.37-9.13-24.75Zm-43.16,34.26c-6.74,4.02-13.63,7.78-20.49,11.6-.74.41-1.65.51-3.35,1-.18-.17-.39-.35-.62-.53-1.29-1.04-3.09-2.16-3.44-3.63-.42-1.73.18-4.26,1.28-5.82.11-.16.23-.31.35-.45,1.73-1.96,4.5-3.01,6.86-4.39,4.42-2.56,8.82-5.16,13.32-7.58,3.18-1.71,6.12-.75,8.02,2.33,1.53,2.46.92,5.77-1.93,7.47Z"/>
      <path class="cls-10" d="m179.14,348.16c-26.52,15.35-52.43,30.34-78.53,45.44-3.84-18.45-12.83-31.73-33.36-34.88,3.34-2.13,6.13-4.07,9.08-5.76,17.19-9.85,34.44-19.6,51.59-29.52,2.6-1.5,4.7-1.59,7.26-.14,5.84,3.31,11.8,6.42,18.22,9.9-2.72,1.62-5.01,3.04-7.36,4.37-13.33,7.56-26.7,15.05-39.98,22.69-1.74,1-3.91,2.49-4.36,4.16-.48,1.8.3,4.46,1.48,6.05,1.69,2.29,4.41,1.92,6.8.61,9.93-5.47,19.85-10.96,29.78-16.44,8.08-4.45,16.19-8.84,24.22-13.37,1.87-1.06,3.26-1.17,5.06.17,3.08,2.27,6.36,4.26,10.1,6.72Z"/>
      <path class="cls-10" d="m369.03,306.9c-.38.17-.75.35-1.12.54-.24.11-.47.22-.7.34-.24.12-.48.24-.71.37-.18.09-.37.19-.55.3-.35.18-.69.38-1.03.58-.3.17-.6.35-.89.53-.93.57-1.82,1.16-2.67,1.79-1.5,1.08-2.88,2.24-4.15,3.48-.7.68-1.38,1.4-2.01,2.13-.25.28-.48.57-.7.85-.16.18-.3.36-.43.54-.25.31-.49.62-.72.94-.26.36-.52.73-.77,1.11-.18.27-.36.55-.53.83-.07.1-.13.2-.19.3-.16.26-.32.52-.46.78-.02.02-.03.03-.03.05-.15.25-.29.5-.43.76-.67,1.24-1.27,2.52-1.8,3.84-.13.3-.24.6-.35.9-.21.55-.41,1.11-.59,1.68-.15.45-.28.89-.41,1.35-.11.38-.22.77-.32,1.16-.03.09-.05.18-.07.28-.12.46-.23.93-.33,1.4-.02.08-.04.16-.06.25-.09.43-.18.87-.26,1.31-.08.43-.15.86-.22,1.3-.28,1.69-.47,3.42-.58,5.2-.07.99-.12,1.98-.14,3-.02.8-.03,1.62-.02,2.44-19.54-10.57-38.73-20.96-58.66-31.75,4.91-2.72,9.14-5.21,13.52-7.39.82-.41,2.38.13,3.36.66,7.98,4.35,15.91,8.8,23.86,13.21.98.55,1.94,1.15,2.98,1.56,3.47,1.35,6.57.35,8.07-2.52,1.4-2.68.51-5.65-2.58-7.68-2.49-1.63-5.17-2.98-7.78-4.44-6.38-3.56-12.77-7.11-19.83-11.05,7.36-4.15,14.04-7.96,20.78-11.67.6-.33,1.73-.22,2.37.13,12.28,6.62,24.52,13.3,36.76,19.99.02.01.05.03.07.05s.03.04.05.06c.08.09.13.21.19.33.02.07.05.13.08.18Z"/>
      <path class="cls-10" d="m43.13,347.03c.25-18.64-6.47-32.51-24.06-40.39,3.02-1.66,5.68-3.18,8.38-4.62,9.57-5.08,19.18-10.09,28.71-15.23,1.84-1,3.22-1.06,5.07.07,5.94,3.63,12.01,7.02,18.68,10.88-4.76,2.64-9.02,5.01-13.29,7.36-4.25,2.34-8.53,4.64-12.77,6.99-3.93,2.18-5.26,5.39-3.61,8.56,1.79,3.45,5,4.04,9.32,1.66,7.96-4.39,15.86-8.91,23.93-13.09,1.44-.74,3.85-.69,5.37-.01,3.79,1.71,7.32,3.99,11.39,6.29-19.29,10.65-37.98,20.96-57.12,31.53Z"/>
      <path class="cls-10" d="m218.33,400.81c-15.99-11.36-31.27-10.87-47.29.46,0-8.2-.04-15.76.07-23.32.01-.79.8-1.84,1.52-2.3,2.18-1.38,4.51-2.54,7.17-3.99.2,2.04.3,3.71.52,5.37.47,3.58,3.09,6.09,6.04,5.88,3.13-.23,4.83-2.42,4.85-6.36.02-2.5.14-5.01-.13-7.48-.3-2.65.63-4.59,3.06-5.19,1.52-.37,3.56-.09,4.94.66,5.68,3.1,11.24,6.44,16.75,9.83,1.03.64,2.36,1.89,2.39,2.89.19,7.66.11,15.34.11,23.55Z"/>
      <path class="cls-6" d="m184.4,245.62c-3.68-.07-4.85-2.02-5.32-4.44.51,2.29,1.71,4.14,5.32,4.44Z"/>
      <path class="cls-6" d="m187.91,244.43c-.53.83-1.28,1.1-2.36,1.17.93-.12,1.7-.5,2.36-1.17Z"/>
      <path class="cls-10" d="m158.02,239.44c0,2.36-.02,4.79-.02,7.36-11.45-6.04-22.14-11.67-33.39-17.6,3.9-2.2,7.24-4.16,10.62-5.94,4.9,2.87,9.8,5.73,14.19,8.27,3.21,1.86,6.14,3.55,8.59,4.96.01.97.01,1.95.01,2.95Z"/>
      <path class="cls-11" d="m191.98,307.53c1.28.6,3.13,1.34,4.84,2.31,26.97,15.36,53.92,30.75,80.87,46.14,2.38,1.36,4.8,2.66,7.12,4.12,4.44,2.79,5.71,5.82,3.84,8.78-2.1,3.31-5.56,3.83-9.88,1.4-7.71-4.35-15.4-8.75-23.1-13.11-21.8-12.36-43.65-24.65-65.36-37.17-2.12-1.22-4.25-3.62-4.92-5.89-.96-3.29,2.51-6.58,6.6-6.58Z"/>
      <path class="cls-11" d="m314.71,249.72c-6.74,4.02-13.63,7.78-20.49,11.6-.74.41-1.65.51-3.35,1-.18-.17-.39-.35-.62-.53-1.29-1.04-3.09-2.16-3.44-3.63-.42-1.73.18-4.26,1.28-5.82.11-.16.23-.31.35-.45,1.73-1.96,4.5-3.01,6.86-4.39,4.42-2.56,8.82-5.16,13.32-7.58,3.18-1.71,6.12-.75,8.02,2.33,1.53,2.46.92,5.77-1.93,7.47Z"/>
      <line class="cls-4" x1="121.12" y1="214.51" x2="119.4" y2="213.73"/>
      <path class="cls-10" d="m218.21,239.8c-.01-.11-.01-.22-.02-.32-.2-3.68-1.17-27.42-1.59-37.38-3.37-15.31-47.2-13.99-47.11,1.61,0,3.84.2,11.74.43,19.84v.02c.45,6.17,1.04,14.73,1.04,17.83v.18c-.02,3.25-.15,6.52,0,9.76.02.36.04.72.06,1.08.09,1.26.87,2.98,1.88,3.58,2.78,1.65,5.58,3.26,8.4,4.84,3.69,2.08,7.41,4.11,11.12,6.15.68.36,1.82.65,2.38.33,2.65-1.51,3.5-1.24,5.6-2.59-.12-.26-.23-.52-.33-.78.11-.07.22-.15.33-.22-1-9,0-19-.75-28-.25-8,11.75-8,12.47,0v21.31c1.97-1.03,3.7-1.73,5.17-2.78.73-.52,1.4-1.69,1.39-2.56-.01-3.97-.2-7.94-.47-11.9Zm-30.3,4.63c-.53.83-1.28,1.1-2.36,1.17-.02,0-.04.01-.07,0-.34.05-.7.05-1.08.02-3.68-.07-4.85-2.02-5.32-4.44-.03-.16-.06-.33-.09-.49-.03-.18-.06-.35-.08-.53-.02-.19-.05-.38-.07-.58-.02-.21-.04-.41-.06-.62-.1-1.09-.16-2.2-.35-3.22t-.03-30.01c0-7,11-8,11,1-.54,26.48.2,35.02-1.49,37.7Z"/>
      <line class="cls-4" x1="269.4" y1="212.73" x2="266.87" y2="214.18"/>
      <path class="cls-10" d="m264.34,229.68s-.06.03-.09.05c-10.66,5.49-20.71,10.66-31.15,16.04-.48.24-.96.49-1.44.74l-.88-16.68c0-6.37,0-12.74,0-19.11l33.56,18.96Z"/>
      <path class="cls-3" d="m267.08,214.3c-.14.08-.29.16-.43.23-.06-.04-.13-.08-.19-.12l.41-.23c.07.04.14.08.21.12Z"/>
      <path class="cls-7" d="m318.2,106.77c2.94.1,4.94,1.54,5.21,4.47.3,3.24-2.08,4.46-4.78,4.72-2.96.29-4.85-1.21-5.01-4.31-.17-3.14,1.64-4.59,4.59-4.89Z"/>
      <path class="cls-3" d="m267.08,214.3c-.14.08-.29.16-.43.23-.06-.04-.13-.08-.19-.12l.41-.23c.07.04.14.08.21.12Z"/>
    </g>
  </g>
</svg>