<?xml version="1.0" encoding="UTF-8"?>
<svg id="Layer_2" data-name="Layer 2" xmlns="http://www.w3.org/2000/svg" viewBox="0 0 329.77 150.55">
  <defs>
    <style>
      .cls-1 {
        fill: #784938;
      }

      .cls-1, .cls-2, .cls-3, .cls-4 {
        stroke-width: 0px;
      }

      .cls-2 {
        fill: #df573e;
      }

      .cls-3 {
        fill: #523025;
      }

      .cls-4 {
        fill: #9c674e;
      }
    </style>
  </defs>
  <g id="Layer_1-2" data-name="Layer 1">
    <g>
      <path class="cls-3" d="m231.73,68.94c9.95-.04,19.95-1.25,29.81,1.14,1.47,1.83,3.39,1.9,5.46,1.42,5.54,1.75,10.49,4.22,12.39,10.33-.35,1.63.07,2.98,1.42,4.01.68,1.74.61,3.45-.17,5.13-6.44,9.59-6.26,10.06,4.63,12.2,2.52.5,5.04,1.02,7.56,1.53,3.11.88,5.51,2.67,7.05,5.54-.05,1.58.57,2.75,2.08,3.38,1.47,2.02,1.64,4.36,1.63,6.73-.21,3.71,2.15,5.1,5.26,5.37,6.75.57,12.31,4.06,18.11,7,.5.82,1,1.65,1.49,2.48-.35,4.58-.69,9.16-1.03,13.74-1.12.25-2.23.73-3.35.73-49.92-.02-99.83-.07-149.75-.13-2.12-1.46-4.23-1.43-6.33.03-3.11,0-6.21,0-9.32,0-2.36-1.46-5.01-1.18-7.6-1.18-41.64-.02-83.28-.02-124.91,0-2.58,0-5.23-.27-7.6,1.19-4.25,0-8.5,0-12.75.01-1.58-.35-3.16-.71-4.74-1.06-.41-5.99-3.02-12.2,1.71-17.7,1.97-.44,3.97-1.38,5.9-1.24,8.54.62,13.87-2.92,17.72-10.7,2.52-5.09,7.7-8.33,13.05-10.99,4.04-2,11.06.2,11.95-4.92.73-4.21-2.65-9.15-4.24-13.75-.18-.53-.59-.99-.89-1.48.17-1.23.34-2.46.5-3.69,5.84-8.01,15.1-9.69,23.6-12.78,2.59-.05,5.18-.1,7.77-.15,9.12,1.56,18.29.82,27.43.37,2.2-.11,5.1-.71,5.01-3.62-.07-2.37-2.82-2.33-4.66-3.03-4.26-1.61-8.46-3.38-12.69-5.09-.74-1.11-1.49-2.22-2.23-3.33.32-2.54.19-4.97-1.67-6.99-.47-12.22-1.54-24.43-.14-36.65,1.63-1.46,2.13-3.29,1.77-5.4,1.11-4.03,3.59-6.62,7.8-7.38,5.15.29,10.04,2.68,15.32,1.93.54.14,1.03.39,1.47.73,1.92,3.85,4.42,5.94,8.65,2.9,4.1.2,8.19.4,12.29.6,1.09,2.56,3.34,3.04,5.73,2.97,26.78-.76,53.67,2.23,80.31-2.14,5.61-.92,10.82-.98,16.15.67,0,0,.2.2.2.2.62,2.63,1.49,5.12,3.88,6.75,1.46,11.57.8,23.12-.18,34.68-2.47,2.47-1.81,5.58-1.77,8.57-.59,1.45-1.82,2.04-3.23,2.37-3.24-.02-6.29.77-8.98,2.57-1.53,1.03-2.31,2.63-1.68,4.5.85,2.52,2.62,2.77,4.79,1.64Zm-3.23,62c10.66,1.56,10.95-3.8,6.97-11.75-2.02-4.04-5.14-6.98-9.46-8.21-5.86-1.67-12.44-1.37-15.39,4.04-2.98,5.47-.09,11,5.63,14.28,3.76,2.94,8.13,1.34,12.24,1.64ZM164.28,19.29c-6.31-.09-12.61-.19-18.92-.28-1.11-2-2.96-2.7-5.07-2.67-10.95.16-21.71-2.51-32.72-1.87-10.83.63-14,4.72-11.37,15.67.14,2.92.29,5.83.43,8.75-1.23,1.05-1.34,2.21-.33,3.47.17,1.64.33,3.29.5,4.93-.84,7.32,2.45,10.73,9.79,10.7,17.53-.07,35.06,0,52.59,0,3.92,0,7.64-.34,8.46-5.3,6.04-2.76,7.98-7.83,7.88-14.03.23-1.72.45-3.43.68-5.15-.5-3.45-.99-6.89-1.49-10.34-1.66-6.17-5.73-5.86-10.43-3.89Zm-80.26,60.39c-3.72,8.88-12.16,11.51-19.73,5.18-3.93-3.28-5.89-2.03-8.56.63-7.67,2.99-3.96,6.56.02,8.98,6.27,3.81,13.45,5.21,20.76,5.22,36.4.07,72.8.02,109.2.04,6.26,0,11.97-1.44,16.68-5.81,6.82-1.95,7.72-5.59,3.97-11.52-2.9-4.59-6.4-7.14-11.87-7.07-6.33.08-12.67.13-19-.06-28.24-.84-56.31,3.67-84.55,2.48-2.74-.92-5.26-1.02-6.92,1.94Zm74.92,51.49c0-.09,0-.18,0-.26,2.03,0,4.05-.01,6.08,0,8.68.05,17.37.31,26.04.09,4.9-.13,8.54-3.04,8.75-7.97.2-4.76-4.12-5.81-7.91-6.41-3.99-.64-8.03-1.27-12.05-1.28-22.87-.05-45.74-.05-68.61.21-9.53.11-19.05.95-28.58,1.34-6.2.26-9.06,4.55-9.39,9.56-.43,6.34,5.33,4.46,8.99,4.9,2,.24,4.05.08,6.07-.01,7.21-.33,14.69,1.44,19.93-6.62,2.57-3.95,8.97-3.43,11.39.57,4.08,6.74,9.86,5.88,15.83,5.89,7.82,0,15.63,0,23.45,0Zm44.96-86.15c1.77-.39,2.85-.71,3.95-.86,2.86-.39,6.27-.39,7.33-3.54,1.2-3.57-3.03-3.48-4.6-5.24-1.85-2.08-3.89-4.99-.21-6.12,5.16-1.58,10.98-2.01,16.05.56,5.49,2.78.88,6.33.02,9.52-.66,2.41-1,4.78,2,5.65,2.31.67,4.14-.62,4.52-2.87,1.16-6.86,1.04-13.79.13-20.66-.36-2.77-2.96-3.44-5.37-3.27-9.18.66-18.41,1.04-27.48,2.39-4.74.71-7.84,3.91-4.95,9.45,1.09,2.09,5.62,2.89,3.41,5.92-1.75,2.4-5.49,1.56-8.18.78-5.81-1.68-7.1.98-7.11,6.08,0,5.45,1.63,9.64,7.01,11.67,6.68,2.52,13.65,3.12,20.11.12,2.96-1.37,2.98-4.81-.7-6.67-1.69-.85-4.1.23-5.94-2.92ZM5,139.92c12.82,2.64,142.99,1.89,148.65-.51-8.07-4.59-134.69-4.6-148.65.51Zm238.24-60.89c0-.06,0-.12,0-.18-5.79,0-11.58-.05-17.36.02-3.77.04-8.92-.13-8.36,4.92.5,4.56,1.27,10.45,8.69,10.88,12.21.69,23.85-3.25,35.89-3.81,3.02-.14,7.82-.87,7.53-5.55-.31-5.16-4.95-5.98-9.04-6.2-5.77-.3-11.57-.08-17.36-.08ZM48.42,113.76c-5.18-.28-10.67,1.07-15.49,4.61-3.03,2.23-4.73,5.28-3.41,8.98,1.33,3.76,4.63,4.77,8.38,4.55,5.72-.34,11.45-.61,17.16-1,3.86-.26,8.66.89,9.9-4.53,1.26-5.48-2.55-8.46-6.58-10.95-2.79-1.72-6.03-1.71-9.95-1.67Z"/>
      <path class="cls-1" d="m18.57,149.56c2.37-1.46,5.01-1.19,7.6-1.19,41.64-.01,83.28-.01,124.91,0,2.58,0,5.23-.28,7.6,1.18-19.87,1.66-39.78.75-59.66.7-26.81-.07-53.65,1-80.45-.7Z"/>
      <path class="cls-1" d="m46.27,87.74c.3.49.7.95.89,1.48,1.59,4.6,4.98,9.54,4.24,13.75-.89,5.11-7.91,2.91-11.95,4.92-5.35,2.66-10.53,5.9-13.05,10.99-3.85,7.78-9.18,11.32-17.72,10.7-1.93-.14-3.93.8-5.9,1.24.33-.46.62-1.31.98-1.34,12.09-1.05,19.4-8.66,25.95-17.95,2.78-3.94,7.67-6.13,12.57-6.97,6.14-1.05,7.83-3.76,4.69-9.34-1.3-2.3-1.61-4.88-.7-7.48Z"/>
      <path class="cls-1" d="m93.25,59.76c4.23,1.71,8.43,3.47,12.69,5.09,1.83.69,4.59.66,4.66,3.03.08,2.9-2.81,3.51-5.01,3.62-9.14.46-18.31,1.19-27.43-.37,7.77-2.78,16.27.17,24.78-2.57-2.61-4.54-8.73-3.89-9.68-8.8Z"/>
      <path class="cls-1" d="m70.38,71.28c-8.5,3.09-17.77,4.77-23.6,12.78,4.13-10.02,10.48-13.46,23.6-12.78Z"/>
      <path class="cls-1" d="m326.96,132.71c-5.8-2.94-11.36-6.43-18.11-7-3.11-.26-5.47-1.66-5.26-5.37,2.79,3.49,7.05,3.51,10.85,4.59,4.92,1.4,10.2,2.2,12.53,7.78Z"/>
      <path class="cls-1" d="m292.83,104.7c-2.52-.51-5.04-1.04-7.56-1.53-10.89-2.14-11.07-2.61-4.63-12.2-1.61,5.79-.76,9.92,6.43,10.45,2.22.16,4.49,1.05,5.76,3.28Z"/>
      <path class="cls-1" d="m231.73,68.94c-2.17,1.14-3.94.88-4.79-1.64-.63-1.87.14-3.47,1.68-4.5,2.69-1.81,5.73-2.6,8.98-2.57-1.62,2.28-4.42,2.13-6.61,3.24-4.93,2.51-1.75,3.95.74,5.48Z"/>
      <path class="cls-1" d="m327.42,148.92c.34-4.58.69-9.16,1.03-13.74,1.07,4.69,2.78,9.42-1.03,13.74Z"/>
      <path class="cls-1" d="m240.82,57.85c-.04-2.99-.7-6.1,1.77-8.57.96,3.18,1.28,6.22-1.77,8.57Z"/>
      <path class="cls-1" d="m89.35,49.44c1.86,2.02,1.99,4.45,1.67,6.99-2.43-1.88-2.58-4.31-1.67-6.99Z"/>
      <path class="cls-1" d="m168,149.55c2.11-1.46,4.22-1.49,6.33-.03-2.11,1.03-4.22,1.02-6.33.03Z"/>
      <path class="cls-1" d="m242.77,14.61c-2.38-1.62-3.26-4.11-3.88-6.75,2.88,1.34,4.25,3.54,3.88,6.75Z"/>
      <path class="cls-1" d="m267,71.5c-2.07.48-4,.41-5.46-1.42,2.14-.73,3.94-.19,5.46,1.42Z"/>
      <path class="cls-1" d="m1.08,148.51c1.58.35,3.16.71,4.74,1.06-1.82.69-3.72,1.8-4.74-1.06Z"/>
      <path class="cls-1" d="m90.98,7.38c.36,2.11-.14,3.94-1.77,5.4-.69-2.22-.31-4.09,1.77-5.4Z"/>
      <path class="cls-1" d="m280.81,85.84c-1.35-1.03-1.77-2.38-1.42-4.01,1.49.98,2.08,2.27,1.42,4.01Z"/>
      <path class="cls-1" d="m301.95,113.62c-1.51-.63-2.13-1.8-2.08-3.38,1.53.61,2.24,1.73,2.08,3.38Z"/>
      <path class="cls-4" d="m158.94,131.16c-7.82,0-15.63,0-23.45,0-5.97,0-11.75.85-15.83-5.89-2.42-4.01-8.82-4.52-11.39-.57-5.25,8.06-12.72,6.28-19.93,6.62-2.02.09-4.08.25-6.07.01-3.66-.44-9.42,1.44-8.99-4.9.34-5.01,3.19-9.3,9.39-9.56,9.53-.39,19.05-1.24,28.58-1.34,22.87-.26,45.74-.27,68.61-.21,4.02,0,8.06.64,12.05,1.28,3.79.61,8.11,1.65,7.91,6.41-.21,4.93-3.85,7.85-8.75,7.97-8.67.22-17.36-.03-26.04-.09-2.03-.01-4.05,0-6.08,0,0,.09,0,.18,0,.26Z"/>
      <path class="cls-4" d="m55.73,85.48c2.67-2.66,4.64-3.91,8.57-.63,7.57,6.33,16.01,3.7,19.73-5.17,2.7.76,5.29,1.11,6.92-1.94,28.24,1.19,56.32-3.32,84.55-2.48,6.33.19,12.67.15,19,.06,5.47-.07,8.97,2.47,11.87,7.07,3.75,5.94,2.86,9.57-3.97,11.53-5.92-2.84-13.57,1.19-18.72-4.71.19-6.7-4.32-6.99-9.3-7.09-5.11-.1-8.47,1.39-8.21,7.21-14.09.53-28.29,2.44-42.23,1.23-17.1-1.48-33.92-1.07-50.75,1.35-7.32,1.05-13.07-.42-17.48-6.42Z"/>
      <path class="cls-1" d="m183.69,89.2c5.15,5.9,12.8,1.87,18.72,4.71-4.71,4.36-10.42,5.81-16.68,5.81-36.4-.02-72.8.03-109.2-.04-7.31-.01-14.49-1.41-20.76-5.22-3.98-2.42-7.69-5.99-.03-8.98,4.41,6,10.15,7.47,17.47,6.42,16.83-2.42,33.65-2.83,50.75-1.35,13.94,1.21,28.14-.7,42.23-1.23,5.87,4.87,11.7,4.08,17.51-.13Z"/>
      <path class="cls-4" d="m96.8,47.29c-.17-1.64-.33-3.29-.5-4.93,1.35-1.04,1.49-2.2.33-3.47-.14-2.92-.29-5.83-.43-8.75,26.87-1.2,53.24,2.33,79.32,8.54.09,6.21-1.85,11.27-7.88,14.03-23.47-3.69-47.03-6.09-70.84-5.41Z"/>
      <path class="cls-1" d="m203.9,45.02c1.83,3.16,4.25,2.07,5.94,2.92,3.68,1.86,3.66,5.29.7,6.67-6.46,3-13.43,2.39-20.11-.12-5.38-2.03-7.01-6.22-7.01-11.67,0-5.1,1.3-7.76,7.11-6.08,2.69.78,6.43,1.63,8.18-.78,2.21-3.03-2.32-3.83-3.41-5.92-2.89-5.54.21-8.74,4.95-9.45,9.08-1.35,18.31-1.74,27.48-2.39,2.41-.17,5.01.5,5.37,3.27.9,6.87,1.03,13.8-.13,20.66-.38,2.25-2.22,3.55-4.52,2.87-3-.88-2.66-3.24-2-5.65.87-3.19,5.47-6.74-.02-9.52-5.07-2.57-10.89-2.14-16.05-.56-3.68,1.13-1.64,4.04.21,6.12,1.57,1.77,5.8,1.67,4.6,5.24-1.06,3.15-4.47,3.15-7.33,3.54-1.1.15-2.18.47-3.95.86Z"/>
      <path class="cls-1" d="m175.52,38.67c-26.08-6.2-52.44-9.74-79.32-8.54-2.64-10.95.54-15.05,11.36-15.67,11.01-.64,21.77,2.03,32.72,1.87,2.12-.03,3.97.67,5.08,2.67-8.07,1.72-16.97-.94-26.16,5.16,13.04,1.58,24.3,3.29,35.61,4.18,7.5.58,13.3,7.53,21.39,5.18-.23,1.72-.45,3.43-.68,5.15Z"/>
      <path class="cls-1" d="m5,139.92c13.96-5.11,140.58-5.1,148.65-.51-5.67,2.41-135.83,3.15-148.65.51Z"/>
      <path class="cls-1" d="m243.24,79.03c5.79,0,11.59-.23,17.36.08,4.09.22,8.73,1.04,9.04,6.2.28,4.68-4.51,5.41-7.53,5.55-12.05.56-23.69,4.5-35.89,3.81-7.42-.42-8.19-6.31-8.69-10.88-.56-5.05,4.59-4.88,8.36-4.92,5.79-.06,11.58-.02,17.36-.02,0,.06,0,.12,0,.18Z"/>
      <path class="cls-1" d="m96.8,47.29c23.8-.67,47.37,1.72,70.84,5.41-.82,4.96-4.55,5.3-8.46,5.3-17.53,0-35.06-.07-52.59,0-7.34.03-10.62-3.39-9.79-10.7Z"/>
      <path class="cls-4" d="m48.42,113.76c3.93-.04,7.17-.05,9.95,1.67,4.03,2.48,7.84,5.47,6.58,10.95-1.25,5.42-6.05,4.26-9.9,4.53-5.72.39-11.44.66-17.16,1-3.75.22-7.04-.8-8.38-4.55-1.31-3.7.38-6.76,3.41-8.98,4.82-3.54,10.31-4.89,15.49-4.61Z"/>
      <path class="cls-4" d="m176.2,33.52c-8.09,2.35-13.89-4.59-21.39-5.18-11.32-.88-22.57-2.6-35.61-4.18,9.19-6.09,18.09-3.44,26.16-5.16,6.31.09,12.61.18,18.92.28,2.59,3.67,6.5,3.8,10.43,3.89.5,3.45.99,6.89,1.49,10.34Z"/>
      <path class="cls-1" d="m216.26,129.3c-5.73-3.28-8.62-8.81-5.63-14.28,2.95-5.41,9.53-5.71,15.39-4.04,4.31,1.23,7.43,4.17,9.46,8.21,3.98,7.94,3.68,13.3-6.97,11.75.37-3.15,3.45-6.49-.02-9.37-2.32-1.93-5.41-1.34-8.12-.59-4.32,1.2-3.79,5.02-4.1,8.32Z"/>
      <path class="cls-4" d="m216.26,129.3c.31-3.3-.22-7.12,4.1-8.32,2.72-.75,5.8-1.34,8.12.59,3.47,2.88.39,6.22.02,9.37-4.11-.3-8.48,1.29-12.24-1.64Z"/>
      <path class="cls-1" d="m174.71,23.18c-3.93-.09-7.84-.22-10.43-3.89,4.7-1.98,8.77-2.28,10.43,3.89Z"/>
      <path class="cls-1" d="m115.57,2.66c3.25-.11,6.15.8,8.65,2.9-4.23,3.04-6.73.95-8.65-2.9Z"/>
      <path class="cls-1" d="m90.94,77.73c-1.63,3.06-4.22,2.7-6.92,1.94,1.66-2.97,4.18-2.86,6.92-1.94Z"/>
      <path class="cls-1" d="m96.63,38.88c1.16,1.28,1.02,2.43-.33,3.47-1.01-1.26-.9-2.42.33-3.47Z"/>
      <path class="cls-2" d="m154.68,4.73s.07-.03.06-.03c0,0-.06.03-.06.03Z"/>
      <path class="cls-3" d="m183.69,89.2c-5.81,4.21-11.64,5-17.51.13-.26-5.82,3.09-7.31,8.21-7.21,4.98.1,9.49.39,9.3,7.09Z"/>
    </g>
  </g>
</svg>