<?xml version="1.0" standalone="no"?>
<!DOCTYPE svg PUBLIC "-//W3C//DTD SVG 20010904//EN"
 "http://www.w3.org/TR/2001/REC-SVG-20010904/DTD/svg10.dtd">
<svg version="1.0" xmlns="http://www.w3.org/2000/svg"
 width="251.000000pt" height="251.000000pt" viewBox="0 0 251.000000 251.000000"
 preserveAspectRatio="xMidYMid meet">
<metadata>
Created by potrace 1.14, written by Peter Selinger 2001-2017
</metadata>
<g transform="translate(0.000000,251.000000) scale(0.100000,-0.100000)"
fill="#000000" stroke="none">
<path d="M1112 2497 c-15 -19 -56 -105 -86 -180 -26 -64 -33 -127 -23 -199 9
-64 -39 -122 -178 -215 -110 -74 -148 -195 -108 -348 10 -38 17 -83 15 -98 -4
-29 -58 -90 -139 -157 -59 -48 -87 -103 -86 -167 1 -60 32 -133 70 -163 25
-20 25 -20 4 -20 -35 0 -59 -17 -88 -63 l-26 -42 1 -216 1 -216 28 -46 c15
-25 45 -55 66 -67 38 -22 41 -22 668 -22 620 -1 630 -1 644 19 8 11 27 23 42
26 15 3 43 19 62 35 l34 28 1 221 c1 204 0 222 -18 242 -11 12 -33 25 -49 29
l-30 8 37 39 c44 48 75 113 80 163 6 69 -21 119 -116 219 -95 99 -137 172
-133 230 1 18 18 56 39 87 37 53 38 56 31 118 -4 34 -16 79 -26 98 -20 39
-209 236 -279 291 -25 19 -62 44 -83 54 -52 28 -77 52 -116 113 -19 30 -39 59
-45 65 -7 7 -24 28 -39 48 -35 46 -140 105 -155 86z"/>
</g>
</svg>
