<?xml version="1.0" standalone="no"?>
<!DOCTYPE svg PUBLIC "-//W3C//DTD SVG 20010904//EN"
 "http://www.w3.org/TR/2001/REC-SVG-20010904/DTD/svg10.dtd">
<svg version="1.0" xmlns="http://www.w3.org/2000/svg"
 width="762.000000pt" height="762.000000pt" viewBox="0 0 762.000000 762.000000"
 preserveAspectRatio="xMidYMid meet">
<metadata>
Created by potrace 1.14, written by Peter Selinger 2001-2017
</metadata>
<g transform="translate(0.000000,762.000000) scale(0.100000,-0.100000)"
fill="#000000" stroke="none">
<path d="M3039 7608 c-38 -31 -46 -88 -18 -139 5 -11 7 -19 5 -19 -3 0 -1 -12
5 -27 14 -36 36 -118 43 -163 3 -19 8 -46 11 -60 3 -14 8 -41 11 -60 2 -19 7
-48 9 -65 32 -210 21 -607 -22 -810 -4 -16 -8 -37 -9 -45 -4 -23 -17 -84 -20
-95 -2 -5 -6 -21 -9 -35 -3 -14 -7 -29 -9 -35 -1 -5 -10 -37 -20 -70 -10 -33
-19 -64 -21 -70 -1 -5 -5 -17 -8 -25 -3 -8 -24 -67 -48 -130 -39 -107 -58
-153 -97 -240 -9 -19 -17 -37 -17 -40 -2 -8 -32 -73 -155 -335 -23 -49 -57
-121 -75 -160 -18 -38 -43 -92 -55 -120 -12 -27 -42 -92 -66 -143 -24 -51 -44
-95 -44 -97 0 -3 -22 -53 -50 -111 -27 -58 -50 -108 -50 -109 0 -2 -13 -32
-29 -67 -85 -185 -121 -272 -146 -353 -55 -179 -115 -181 -169 -6 -27 86 -42
145 -52 207 -3 20 -7 46 -9 57 -22 110 -22 383 -1 497 3 14 7 41 10 60 3 19
11 53 16 75 6 22 13 51 16 64 3 14 7 28 10 33 3 4 7 16 9 25 3 16 25 87 66
211 38 117 1 171 -97 143 -53 -15 -228 -201 -374 -396 -202 -271 -388 -642
-494 -985 -19 -63 -37 -126 -40 -140 -3 -14 -12 -55 -20 -91 -8 -36 -17 -79
-20 -95 -19 -101 -26 -144 -31 -184 -2 -25 -8 -70 -12 -100 -9 -74 -9 -508 0
-590 45 -395 110 -660 240 -970 57 -135 183 -367 243 -445 13 -18 24 -37 24
-43 0 -6 3 -12 8 -14 4 -1 38 -43 76 -93 74 -96 321 -348 396 -405 53 -40 106
-85 175 -149 28 -26 70 -62 95 -81 24 -19 50 -39 56 -45 6 -5 22 -17 34 -25
13 -8 35 -24 49 -35 14 -12 58 -41 96 -65 103 -64 115 -71 117 -68 2 2 17 -6
33 -18 82 -57 359 -168 530 -212 22 -6 58 -15 80 -21 22 -6 54 -13 70 -16 288
-52 356 -58 590 -59 178 -1 278 6 359 24 22 5 56 12 75 15 19 3 37 8 41 10 3
2 17 6 31 8 34 7 231 73 277 93 90 41 221 106 267 134 28 16 57 33 65 37 20
11 174 115 180 122 3 4 25 22 50 41 25 19 59 47 75 62 17 15 33 28 36 28 3 0
17 10 30 21 13 12 40 33 59 48 19 14 40 31 46 36 6 6 28 24 48 40 45 35 63 50
135 113 30 26 72 63 95 82 80 69 312 306 368 376 31 39 78 104 104 144 46 72
161 292 198 380 10 25 27 64 37 87 57 126 150 453 174 603 3 25 9 59 12 75 6
38 9 63 20 150 10 88 10 487 0 580 -18 167 -33 261 -63 400 -2 11 -6 29 -8 40
-5 25 -25 105 -31 125 -2 8 -11 40 -20 70 -9 30 -17 60 -18 65 -1 6 -8 24 -14
40 -6 17 -28 75 -49 130 -150 403 -394 775 -723 1101 -89 89 -127 107 -172 83
-49 -25 -60 -71 -39 -149 5 -19 11 -46 13 -60 3 -14 10 -44 16 -67 21 -79 26
-128 26 -273 -1 -193 -7 -234 -57 -385 -87 -265 -299 -502 -538 -604 -41 -18
-76 -32 -77 -32 -2 1 -4 1 -5 0 -58 -17 -111 -13 -130 12 -32 38 -25 73 58
328 65 200 111 420 129 616 4 39 6 76 6 83 -1 6 -1 20 -1 30 0 9 1 51 1 92 1
76 -7 221 -15 275 -3 17 -8 57 -12 90 -3 33 -9 64 -11 69 -3 4 -8 25 -10 45
-3 20 -9 41 -14 47 -5 6 -7 13 -4 16 3 2 0 20 -6 39 -5 19 -12 45 -15 59 -2
14 -7 32 -11 40 -3 8 -7 20 -9 25 -5 23 -83 234 -103 280 -12 28 -27 62 -34
78 -7 15 -15 27 -19 27 -5 0 -8 7 -8 16 0 18 -46 109 -69 137 -8 9 -10 17 -6
17 4 0 1 8 -7 18 -8 9 -34 51 -58 92 -24 41 -47 77 -52 78 -4 2 -8 9 -8 15 0
7 -18 36 -40 65 -22 29 -40 55 -40 57 0 3 -6 13 -14 22 -8 10 -52 65 -97 123
-98 125 -351 379 -467 469 -45 36 -82 69 -82 73 0 5 -4 7 -9 4 -5 -3 -15 1
-22 10 -30 36 -421 284 -448 284 -5 0 -11 3 -13 8 -6 14 -133 73 -168 77 -21
3 -42 0 -51 -7z"/>
</g>
</svg>
